<svg width="118" height="118" viewBox="0 0 118 118" fill="none" xmlns="http://www.w3.org/2000/svg">
<path d="M45.4686 46.3919L46.5475 45.3647L46.5215 45.3352L46.4941 45.3072L45.4686 46.3919ZM53.2866 57.5125C53.8382 58.1382 54.7683 58.1855 55.3641 57.6182C55.96 57.0509 55.9959 56.0838 55.4444 55.4581L53.2866 57.5125ZM77.7477 77.7347L78.2597 76.3067L78.2597 76.3067L77.7477 77.7347ZM90 78L75.3886 68.8542L75.2106 86.5092L90 78ZM62.1657 62.3334C61.5839 61.738 60.6531 61.741 60.0868 62.3401C59.5204 62.9392 59.533 63.9075 60.1147 64.5029L62.1657 62.3334ZM68.436 70.8843L67.4106 71.969L67.4695 72.0293L67.5344 72.0824L68.436 70.8843ZM73.9066 75.3617L73.0049 76.5599L73.9066 75.3617ZM31.0517 33.6214C30.2977 33.3 29.4423 33.6726 29.1412 34.4537C28.84 35.2348 29.207 36.1285 29.961 36.4499L31.0517 33.6214ZM33.5171 36.3189L34.0624 34.9047L34.0624 34.9047L33.5171 36.3189ZM39.9186 40.7124L38.8932 41.7971L39.9186 40.7124ZM44.3897 47.4191L53.2866 57.5125L55.4444 55.4581L46.5475 45.3647L44.3897 47.4191ZM60.1147 64.5029L67.4106 71.969L69.4615 69.7995L62.1657 62.3334L60.1147 64.5029ZM67.5344 72.0824L73.0049 76.5599L74.8082 74.1636L69.3377 69.6861L67.5344 72.0824ZM29.961 36.4499L32.9717 37.7332L34.0624 34.9047L31.0517 33.6214L29.961 36.4499ZM38.8932 41.7971L44.4431 47.4766L46.4941 45.3072L40.9441 39.6276L38.8932 41.7971ZM32.9717 37.7332C35.1785 38.6738 37.1904 40.0546 38.8932 41.7971L40.9441 39.6276C38.9652 37.6026 36.627 35.9979 34.0624 34.9047L32.9717 37.7332ZM78.2597 76.3067C77.0557 75.8285 75.9177 75.0716 74.8082 74.1636L73.0049 76.5599C74.2463 77.5759 75.6498 78.5328 77.2357 79.1627L78.2597 76.3067Z" fill="#D6D6D6"/>
<path d="M50.0654 68.9538L51.0715 70.0611L51.0958 70.0372L51.119 70.0121L50.0654 68.9538ZM63.1873 54.7857L62.1536 53.7062L62.1435 53.7167L62.1336 53.7274L63.1873 54.7857ZM30.2286 79.5098C29.4172 79.5098 28.7547 80.1949 28.7487 81.0401C28.7427 81.8853 29.3956 82.5704 30.2069 82.5704L30.2286 79.5098ZM42.0345 76.8731L43.0011 78.018L42.0345 76.8731ZM42.4351 76.4832L41.4289 75.3759L41.4289 75.3759L42.4351 76.4832ZM69.5567 48.1674L70.5903 49.2469L69.5567 48.1674ZM83.2722 42.1574L83.2673 40.6272L83.2673 40.6272L83.2722 42.1574ZM90.3076 42.0787L75.5882 33.4084L75.6457 51.0779L90.3076 42.0787ZM51.119 70.0121L64.2409 55.844L62.1336 53.7274L49.0117 67.8955L51.119 70.0121ZM30.2069 82.5704C37.5309 82.5704 41.9201 79.0102 43.0011 78.018L41.0678 75.7282C40.3095 76.4242 36.5892 79.5098 30.2286 79.5098L30.2069 82.5704ZM43.4412 77.5905L51.0715 70.0611L49.0592 67.8465L41.4289 75.3759L43.4412 77.5905ZM64.2209 55.8652L70.5903 49.2469L68.5231 47.0879L62.1536 53.7062L64.2209 55.8652ZM70.5903 49.2469C73.9678 45.7374 78.5242 43.7409 83.2772 43.6877L83.2673 40.6272C77.7435 40.6891 72.4483 43.0094 68.5231 47.0879L70.5903 49.2469ZM43.0011 78.018C43.1652 77.8674 43.3305 77.6998 43.4412 77.5905L41.4289 75.3759C41.2738 75.5289 41.1785 75.6266 41.0678 75.7282L43.0011 78.018Z" fill="#D6D6D6"/>
</svg>
