<svg width="1185" height="675" viewBox="0 0 1185 675" fill="none" xmlns="http://www.w3.org/2000/svg">
<circle cx="274" cy="338" r="152" fill="#13D176"/>
<circle cx="976" cy="338" r="152" fill="#13D176"/>
<rect x="271" y="186" width="696" height="304" fill="#13D176"/>
<circle cx="274.5" cy="340.5" r="135.5" fill="#C4C4C4"/>
<g clip-path="url(#clip0_3_2)">
<path d="M232.837 420.73C219.81 410.488 204.08 401.173 193.834 389.922C191.461 387.317 195.618 383.187 193.579 379.603C191.437 375.838 189.069 370.27 192.259 366.722C196.219 362.316 192.375 359.558 188.022 357.701C182.993 355.557 182.859 339.748 177.213 346.41C173.342 350.446 160.203 364.661 152.915 360.789C147.193 355.738 158.209 346.89 162.449 343.568C166.028 340.763 171.609 336.705 170.353 332.924C169.855 331.426 168.404 329.673 170.389 327.926C172.374 326.18 173.823 326.672 174.284 325.273C175.483 321.639 179.609 322.018 181.501 318.821C183.16 316.02 186.163 314.256 188.696 312.515C191.734 310.426 197.622 313.27 198.576 308.868C199.452 305.218 201.66 303.054 205.775 301.725C211.277 299.947 218.044 303.092 218.431 308.562C218.721 312.651 215.601 317.345 210.514 318.225C207.532 318.741 203.205 321.294 206.573 324.438C210.263 330.139 213.23 336.365 215.6 342.541C215.564 346.017 215.691 348.516 219.243 349.933C222.171 351.101 222.057 354.88 225.965 356.187C230.845 357.82 233.985 362.258 237.581 365.664C239.157 354.115 246.452 344.001 249.514 332.819C251.304 327.462 246.691 322.674 247.556 317.169C247.978 314.482 242.619 311.809 239.583 311.531C234.953 311.495 229.913 312.785 225.728 311.949C221.164 311.037 223.002 304.384 222.605 300.688C219.745 298.165 220.687 294.926 220.125 291.733C218.559 288.917 216.452 289.594 213.306 288.329C209.407 286.761 212.438 278.526 213.359 275.616C214.484 272.063 211.599 270.013 211.074 266.897C210.065 260.91 211.624 254.36 213.423 248.574C221.068 233.095 245.787 228.096 261 230.5C294.4 236.204 293.252 258.514 284.128 283.648C286.249 285.577 286.664 292.742 290.368 289.814C293.764 288.562 295.944 293.505 298.121 295.359C299.676 298.727 303.4 298.76 306.736 300.393C317.008 305.421 328.602 313.073 335.443 319.507C342.284 325.94 346.081 329.722 349.646 337.965C353.211 346.207 357.886 356.522 360.865 366.191C366.293 383.808 371.123 402.356 372.697 420.605C326.078 420.862 279.461 420.472 232.837 420.728L232.837 420.73Z" fill="#C4C4C4" stroke="white" stroke-width="10"/>
<path d="M291.901 417.841C288.321 417.841 278.316 415.872 276.475 419.555" stroke="#C4C4C4" stroke-width="3" stroke-linecap="round"/>
<path d="M276.475 416.127C281.508 418.644 297.528 422.983 291.901 422.983C284.694 422.983 275.983 424.451 268.952 422.888C266.084 422.251 286.283 418.937 279.903 415.746C276.96 414.275 267.99 415.578 273.428 417.46C275.858 418.302 285.29 417.841 284.759 417.841C266.286 417.841 280.148 423.691 284.664 419.174C290.155 413.683 263.719 417.841 270.476 417.841C281.252 417.841 265.149 402.015 268.286 416.127C268.439 416.818 271.27 427.601 272.666 426.031C273.81 424.744 273.047 415.03 273.047 416.413C273.047 420.495 271.991 422.589 269.619 425.554C267.911 427.689 266.243 414.584 266.191 412.699C265.817 399.25 267.905 428.802 267.905 422.031C267.905 403.906 264.81 429.132 263.143 424.317C261.316 419.036 263.073 401.978 262.763 407.557C262.492 412.434 261.062 419.485 258.954 423.936C255.589 431.039 256.299 415.651 256.859 413.652C257.537 411.229 262.249 397.253 258.477 406.891C256.274 412.523 255.094 417.12 250.383 420.889C242.987 426.806 259.465 385.833 250.003 407.462C248.682 410.48 245.622 413.726 245.622 416.984C245.622 419.325 247.677 422.302 249.05 419.555" stroke="#C4C4C4" stroke-width="3" stroke-linecap="round"/>
<path d="M249.05 416.127C254.799 400.799 243.908 413.477 243.908 421.269C243.908 423.249 241.746 428.886 242.29 426.983C243.481 422.812 247.376 420.551 248.67 416.508C250.655 410.304 239.189 431.661 243.527 422.983C243.867 422.304 246.348 415.592 244.67 417.27C242.522 419.418 240.48 428.402 240.48 425.364C240.48 420.696 248.066 408.732 244.765 412.033C241.976 414.823 240.48 429.069 240.48 422.126C240.48 418.217 239.943 414.493 241.813 410.985C241.882 410.857 240.48 418.77 240.48 421.174C240.48 428.237 247.17 417.234 249.05 414.413" stroke="#C4C4C4" stroke-width="3" stroke-linecap="round"/>
<path d="M309.041 405.843C294.309 405.843 278.996 409.264 272.285 424.602C269.051 431.994 285.534 424.754 288.473 424.697C296.144 424.55 302.152 426.848 300.376 417.08C299.419 411.818 274.588 414.413 300.281 414.413C307.736 414.413 287.037 413.119 286.759 417.841C286.34 424.955 294.304 422.983 299.233 422.983C308.033 422.983 282.632 417.016 274.761 413.08C272.202 411.801 273.548 409.408 270 409.271C266.492 409.136 262.461 409.629 259.335 411.366C256.505 412.938 253.224 417.528 251.621 420.412C251.089 421.372 250.114 434.668 247.717 427.745C245.262 420.652 249.05 413.595 249.05 406.795C249.05 402.513 245.622 412.959 245.622 415.27C245.622 432.037 232.653 420.717 238.005 415.366C243.869 409.501 251.406 408.663 257.621 412.318C262.787 415.358 266.35 419.685 268 425.459C269.145 429.469 255.694 422.601 252.478 419.555C245.422 412.87 261.005 416.247 264.572 417.08C277.728 420.149 289.31 424.697 302.947 424.697C306.618 424.697 316.526 426.928 315.897 421.269C315.387 416.679 297.234 415.091 297.234 416.984C297.234 421.255 322.731 421.269 326.181 421.269C330.467 421.269 334.752 421.269 339.037 421.269C347.802 421.269 331.439 414.515 329.99 414.032C325.573 412.56 321.637 412.699 316.945 412.699C312.968 412.699 324.775 414.413 328.752 414.413C333.012 414.413 337.356 414.163 341.608 414.413C345.025 414.614 346.379 419.555 351.035 419.555C358.162 419.555 358.821 421.009 351.892 417.841C347.309 415.746 338.85 414.04 336.466 409.271" stroke="#C4C4C4" stroke-width="10"/>
<path d="M362.176 417.841C347.32 417.841 362.559 417.12 359.7 417.937C357.98 418.428 369.09 419.224 358.748 417.746C349.253 416.39 341.321 411.17 331.323 410.985C321.047 410.795 310.751 410.985 300.471 410.985" stroke="#C4C4C4" stroke-width="10"/>
<path d="M247.336 412.699C240.704 415.518 236.898 420.141 231.529 424.317C229.242 426.096 232.815 418.698 233.624 417.841C235.584 415.766 236.255 413.955 238.766 412.699" stroke="#C4C4C4" stroke-width="10"/>
</g>
<defs>
<clipPath id="clip0_3_2">
<rect width="222" height="195" fill="white" transform="translate(151 226)"/>
</clipPath>
</defs>
</svg>
