<svg width="1500" height="1500" viewBox="0 0 1500 1500" fill="none" xmlns="http://www.w3.org/2000/svg">
<g clip-path="url(#clip0_7_2)">
<rect x="-12" y="12" width="1500" height="1500" fill="url(#paint0_linear_7_2)"/>
<path d="M738 925.281L731.75 919.812C589.562 804.187 551.281 763.562 551.281 697.156C551.281 642.469 595.812 598.719 649.719 598.719C695.031 598.719 720.812 624.5 738 644.031C755.187 624.5 780.969 598.719 826.281 598.719C880.969 598.719 924.719 643.25 924.719 697.156C924.719 763.562 886.437 804.187 744.25 919.812L738 925.281ZM649.719 619.031C606.75 619.031 571.594 654.187 571.594 697.156C571.594 754.187 607.531 791.688 738 898.719C868.469 791.688 904.406 754.187 904.406 697.156C904.406 654.187 869.25 619.031 826.281 619.031C787.219 619.031 766.125 642.469 749.719 661.219L738 674.5L726.281 661.219C709.875 642.469 688.781 619.031 649.719 619.031Z" fill="white"/>
</g>
<defs>
<linearGradient id="paint0_linear_7_2" x1="738" y1="12" x2="738" y2="1512" gradientUnits="userSpaceOnUse">
<stop stop-color="#9593FF"/>
<stop offset="1" stop-color="#F332BD" stop-opacity="0"/>
</linearGradient>
<clipPath id="clip0_7_2">
<rect width="1500" height="1500" fill="white"/>
</clipPath>
</defs>
</svg>
