<svg width="118" height="118" viewBox="0 0 118 118" fill="none" xmlns="http://www.w3.org/2000/svg">
<path d="M45.1 86.5L60.1 95.1603V77.8397L45.1 86.5ZM39.9667 88C40.7951 88 41.4667 87.3284 41.4667 86.5C41.4667 85.6716 40.7951 85 39.9667 85V88ZM33.5 25H73.5V22H33.5V25ZM80 31.5V78.5H83V31.5H80ZM73.5 85H58.6V88H73.5V85ZM27 62.7264L27 31.5H24L24 62.7264H27ZM39.9667 85H33.5V88H39.9667V85ZM27 78.5V62.7264H24V78.5H27ZM33.5 85C29.9101 85 27 82.0899 27 78.5H24C24 83.7467 28.2533 88 33.5 88V85ZM80 78.5C80 82.0899 77.0899 85 73.5 85V88C78.7467 88 83 83.7467 83 78.5H80ZM73.5 25C77.0899 25 80 27.9101 80 31.5H83C83 26.2533 78.7467 22 73.5 22V25ZM33.5 22C28.2533 22 24 26.2533 24 31.5H27C27 27.9101 29.9101 25 33.5 25V22Z" fill="#D6D6D6"/>
</svg>
